<?xml version="1.0" encoding="UTF-8"?>
<!DOCTYPE svg PUBLIC "-//W3C//DTD SVG 1.1//EN" "http://www.w3.org/Graphics/SVG/1.1/DTD/svg11.dtd">
<svg xmlns="http://www.w3.org/2000/svg" version="1.1" width="2853px" height="512px" style="shape-rendering:geometricPrecision; text-rendering:geometricPrecision; image-rendering:optimizeQuality; fill-rule:evenodd; clip-rule:evenodd" xmlns:xlink="http://www.w3.org/1999/xlink">
<g><path style="opacity:0.997" fill="#f40437" d="M 1160.5,-0.5 C 1176.83,-0.5 1193.17,-0.5 1209.5,-0.5C 1295.34,8.54047 1362.17,48.8738 1410,120.5C 1446.39,181.941 1456.73,247.607 1441,317.5C 1419.31,396.528 1371.47,453.695 1297.5,489C 1269.25,501.228 1239.92,508.728 1209.5,511.5C 1193.17,511.5 1176.83,511.5 1160.5,511.5C 1067.6,501.829 997.77,456.829 951,376.5C 923.595,321.601 915.595,263.934 927,203.5C 943.516,130.26 983.682,74.0932 1047.5,35C 1082.59,14.6497 1120.26,2.81634 1160.5,-0.5 Z M 1170.5,110.5 C 1237.08,107.021 1284.91,135.021 1314,194.5C 1328.96,234.7 1329.29,275.033 1315,315.5C 1285.88,375.663 1237.71,403.83 1170.5,400C 1123.36,394.693 1087.53,371.86 1063,331.5C 1042.98,292.128 1038.98,251.128 1051,208.5C 1071.23,151.757 1111.06,119.09 1170.5,110.5 Z"/></g>
<g><path style="opacity:0.996" fill="#f40437" d="M 1536.5,8.5 C 1651.18,8.78075 1765.85,9.44742 1880.5,10.5C 1879.77,70.8462 1861.61,125.18 1826,173.5C 1767.83,248.333 1709.67,323.167 1651.5,398C 1729.84,398.167 1808.17,398.667 1886.5,399.5C 1876.57,422.125 1866.74,444.792 1857,467.5C 1848.87,484.959 1835.37,495.792 1816.5,500C 1703.17,500.5 1589.83,500.667 1476.5,500.5C 1477.61,447.666 1494.44,400.666 1527,359.5C 1593.19,277.607 1659.03,195.441 1724.5,113C 1641.16,112.833 1557.83,112.333 1474.5,111.5C 1480.3,90.2558 1485.8,68.9224 1491,47.5C 1499.27,26.3955 1514.43,13.3955 1536.5,8.5 Z"/></g>
<g><path style="opacity:0.997" fill="#f40437" d="M -0.5,500.5 C -0.5,499.833 -0.5,499.167 -0.5,498.5C 60.557,354.038 121.39,209.371 182,64.5C 195.395,34.5557 218.228,16.7224 250.5,11C 277.173,10.1668 303.84,10.3335 330.5,11.5C 398.833,174.167 467.167,336.833 535.5,499.5C 492.171,500.667 448.837,500.833 405.5,500C 393.671,470.677 382.337,441.177 371.5,411.5C 302.499,411.333 233.499,411.5 164.5,412C 153.037,441.096 141.704,470.263 130.5,499.5C 86.8384,500.5 43.1718,500.833 -0.5,500.5 Z M 267.5,148.5 C 288.737,200.866 309.404,253.533 329.5,306.5C 288.495,306.833 247.495,306.5 206.5,305.5C 227.037,253.217 247.371,200.883 267.5,148.5 Z"/></g>
<g><path style="opacity:0.997" fill="#f40437" d="M 426.5,10.5 C 470.835,10.3333 515.168,10.5 559.5,11C 599.54,82.2477 639.707,153.414 680,224.5C 719.5,153.5 759,82.5 798.5,11.5C 844.163,10.3334 889.83,10.1667 935.5,11C 870.793,122.915 805.96,234.749 741,346.5C 740.5,397.832 740.333,449.166 740.5,500.5C 699.167,500.5 657.833,500.5 616.5,500.5C 616.667,449.832 616.5,399.166 616,348.5C 552.556,235.941 489.389,123.274 426.5,10.5 Z"/></g>
<g><path style="opacity:0.997" fill="#f40437" d="M 2182.5,10.5 C 2209.17,10.1669 2235.84,10.5002 2262.5,11.5C 2330.83,174.167 2399.17,336.833 2467.5,499.5C 2424.17,500.667 2380.84,500.833 2337.5,500C 2326.04,470.904 2314.7,441.737 2303.5,412.5C 2234.5,411.167 2165.5,411.167 2096.5,412.5C 2085.17,441.5 2073.83,470.5 2062.5,499.5C 2018.83,500.833 1975.17,500.833 1931.5,499.5C 1993.78,350.269 2056.62,201.269 2120,52.5C 2134.94,29.6208 2155.77,15.6208 2182.5,10.5 Z M 2199.5,148.5 C 2220.74,200.866 2241.4,253.533 2261.5,306.5C 2220.49,306.833 2179.49,306.5 2138.5,305.5C 2159.04,253.222 2179.37,200.888 2199.5,148.5 Z"/></g>
<g><path style="opacity:0.997" fill="#f40437" d="M 2385.5,10.5 C 2517.17,10.3333 2648.83,10.5 2780.5,11C 2803.13,16.9615 2817.96,31.1281 2825,53.5C 2832.15,74.4425 2838.98,95.4425 2845.5,116.5C 2788.5,116.5 2731.5,116.5 2674.5,116.5C 2674.5,244.5 2674.5,372.5 2674.5,500.5C 2634.17,500.5 2593.83,500.5 2553.5,500.5C 2553.5,372.5 2553.5,244.5 2553.5,116.5C 2516.83,116.667 2480.17,116.5 2443.5,116C 2425.15,113.309 2412.31,103.476 2405,86.5C 2397.78,61.3387 2391.28,36.0053 2385.5,10.5 Z"/></g>
</svg>
