<svg width="955" height="772" viewBox="0 0 955 772" fill="none" xmlns="http://www.w3.org/2000/svg">
<path d="M741.743 491.5C742.575 482.946 743 474.273 743 465.5C743 318.868 624.132 200 477.5 200C330.868 200 212 318.868 212 465.5C212 474.273 212.425 482.946 213.257 491.5" stroke="#7B9DB4" stroke-opacity="0.24"/>
<g opacity="0.4" filter="url(#filter0_f_1_46)">
<circle cx="477" cy="386" r="186" fill="#F50537"/>
</g>
<path d="M408.384 554L412.736 542.08H414.112L418.464 554H417.12L416.096 551.088H410.768L409.728 554H408.384ZM411.184 549.888H415.648L413.232 543.04H413.616L411.184 549.888ZM420.077 554V541.888H421.277V554H420.077ZM423.934 554V541.888H425.134V554H423.934ZM430.709 554V545.424H431.909V554H430.709ZM430.709 543.84V542.08H431.909V543.84H430.709ZM434.565 554V545.424H435.765V547.088L435.493 547.024C435.706 546.469 436.053 546.032 436.533 545.712C437.023 545.392 437.589 545.232 438.229 545.232C438.837 545.232 439.381 545.371 439.861 545.648C440.351 545.925 440.735 546.309 441.013 546.8C441.301 547.28 441.445 547.824 441.445 548.432V554H440.245V548.896C440.245 548.373 440.149 547.931 439.957 547.568C439.775 547.205 439.514 546.928 439.173 546.736C438.842 546.533 438.458 546.432 438.021 546.432C437.583 546.432 437.194 546.533 436.853 546.736C436.511 546.928 436.245 547.211 436.053 547.584C435.861 547.947 435.765 548.384 435.765 548.896V554H434.565ZM450.871 554.192C450.061 554.192 449.325 554 448.663 553.616C448.002 553.221 447.474 552.688 447.079 552.016C446.695 551.333 446.503 550.56 446.503 549.696C446.503 548.843 446.695 548.08 447.079 547.408C447.463 546.736 447.981 546.208 448.631 545.824C449.293 545.429 450.039 545.232 450.871 545.232C451.703 545.232 452.445 545.424 453.095 545.808C453.757 546.192 454.274 546.72 454.647 547.392C455.031 548.064 455.223 548.832 455.223 549.696C455.223 550.571 455.026 551.349 454.631 552.032C454.237 552.704 453.709 553.232 453.047 553.616C452.397 554 451.671 554.192 450.871 554.192ZM450.871 552.992C451.447 552.992 451.965 552.848 452.423 552.56C452.893 552.272 453.261 551.877 453.527 551.376C453.805 550.875 453.943 550.315 453.943 549.696C453.943 549.077 453.805 548.523 453.527 548.032C453.261 547.541 452.893 547.152 452.423 546.864C451.965 546.576 451.447 546.432 450.871 546.432C450.295 546.432 449.773 546.576 449.303 546.864C448.845 547.152 448.477 547.541 448.199 548.032C447.922 548.523 447.783 549.077 447.783 549.696C447.783 550.315 447.922 550.875 448.199 551.376C448.477 551.877 448.845 552.272 449.303 552.56C449.773 552.848 450.295 552.992 450.871 552.992ZM457.54 554V545.424H458.74V547.088L458.468 547.024C458.681 546.469 459.028 546.032 459.508 545.712C459.998 545.392 460.564 545.232 461.204 545.232C461.812 545.232 462.356 545.371 462.836 545.648C463.326 545.925 463.71 546.309 463.988 546.8C464.276 547.28 464.42 547.824 464.42 548.432V554H463.22V548.896C463.22 548.373 463.124 547.931 462.932 547.568C462.75 547.205 462.489 546.928 462.148 546.736C461.817 546.533 461.433 546.432 460.996 546.432C460.558 546.432 460.169 546.533 459.828 546.736C459.486 546.928 459.22 547.211 459.028 547.584C458.836 547.947 458.74 548.384 458.74 548.896V554H457.54ZM470.816 554.192C470.016 554.192 469.29 554 468.64 553.616C468 553.221 467.493 552.683 467.12 552C466.746 551.317 466.56 550.544 466.56 549.68C466.56 548.816 466.741 548.053 467.104 547.392C467.466 546.72 467.957 546.192 468.576 545.808C469.205 545.424 469.909 545.232 470.688 545.232C471.306 545.232 471.856 545.349 472.336 545.584C472.826 545.808 473.242 546.117 473.584 546.512C473.925 546.896 474.186 547.333 474.368 547.824C474.549 548.304 474.64 548.8 474.64 549.312C474.64 549.419 474.634 549.541 474.624 549.68C474.613 549.808 474.597 549.941 474.576 550.08H467.328V548.96H473.888L473.312 549.44C473.408 548.853 473.338 548.331 473.104 547.872C472.88 547.403 472.554 547.035 472.128 546.768C471.701 546.491 471.221 546.352 470.688 546.352C470.154 546.352 469.658 546.491 469.2 546.768C468.752 547.045 468.4 547.435 468.144 547.936C467.888 548.427 467.786 549.013 467.84 549.696C467.786 550.379 467.893 550.976 468.16 551.488C468.437 551.989 468.81 552.379 469.28 552.656C469.76 552.933 470.272 553.072 470.816 553.072C471.445 553.072 471.973 552.923 472.4 552.624C472.826 552.325 473.173 551.952 473.44 551.504L474.464 552.048C474.293 552.432 474.032 552.789 473.68 553.12C473.328 553.44 472.906 553.701 472.416 553.904C471.936 554.096 471.402 554.192 470.816 554.192ZM479.874 557.2V545.424H481.074V547.344L480.882 547.008C481.224 546.464 481.677 546.032 482.242 545.712C482.818 545.392 483.474 545.232 484.21 545.232C485.021 545.232 485.741 545.429 486.37 545.824C487.01 546.208 487.512 546.736 487.874 547.408C488.248 548.08 488.434 548.848 488.434 549.712C488.434 550.565 488.248 551.333 487.874 552.016C487.512 552.688 487.01 553.221 486.37 553.616C485.741 554 485.021 554.192 484.21 554.192C483.474 554.192 482.808 554.027 482.21 553.696C481.624 553.355 481.181 552.875 480.882 552.256L481.074 552.08V557.2H479.874ZM484.146 552.992C484.722 552.992 485.234 552.848 485.682 552.56C486.141 552.272 486.498 551.883 486.754 551.392C487.021 550.891 487.154 550.331 487.154 549.712C487.154 549.083 487.021 548.523 486.754 548.032C486.498 547.541 486.141 547.152 485.682 546.864C485.234 546.576 484.722 546.432 484.146 546.432C483.57 546.432 483.048 546.576 482.578 546.864C482.12 547.152 481.752 547.547 481.474 548.048C481.208 548.539 481.074 549.093 481.074 549.712C481.074 550.331 481.208 550.891 481.474 551.392C481.752 551.883 482.12 552.272 482.578 552.56C483.048 552.848 483.57 552.992 484.146 552.992ZM490.746 554V541.888H491.946V554H490.746ZM497.082 554.192C496.538 554.192 496.053 554.091 495.626 553.888C495.2 553.675 494.864 553.387 494.618 553.024C494.373 552.661 494.25 552.245 494.25 551.776C494.25 551.328 494.346 550.923 494.538 550.56C494.73 550.187 495.029 549.872 495.434 549.616C495.84 549.36 496.357 549.179 496.986 549.072L500.346 548.512V549.6L497.274 550.112C496.656 550.219 496.208 550.416 495.93 550.704C495.664 550.992 495.53 551.333 495.53 551.728C495.53 552.112 495.68 552.437 495.978 552.704C496.288 552.971 496.682 553.104 497.162 553.104C497.749 553.104 498.261 552.981 498.698 552.736C499.136 552.48 499.477 552.139 499.722 551.712C499.968 551.285 500.09 550.811 500.09 550.288V548.112C500.09 547.6 499.904 547.184 499.53 546.864C499.157 546.544 498.672 546.384 498.074 546.384C497.552 546.384 497.093 546.517 496.698 546.784C496.304 547.04 496.01 547.376 495.818 547.792L494.73 547.2C494.89 546.837 495.141 546.507 495.482 546.208C495.834 545.909 496.234 545.675 496.682 545.504C497.13 545.323 497.594 545.232 498.074 545.232C498.704 545.232 499.258 545.355 499.738 545.6C500.229 545.845 500.608 546.187 500.874 546.624C501.152 547.051 501.29 547.547 501.29 548.112V554H500.09V552.288L500.266 552.464C500.117 552.784 499.882 553.077 499.562 553.344C499.253 553.6 498.885 553.808 498.458 553.968C498.042 554.117 497.584 554.192 497.082 554.192ZM507.082 554.096C506.314 554.096 505.722 553.872 505.306 553.424C504.89 552.976 504.682 552.336 504.682 551.504V546.624H503.098V545.424H503.498C503.861 545.424 504.149 545.307 504.362 545.072C504.576 544.827 504.682 544.523 504.682 544.16V543.44H505.882V545.424H507.77V546.624H505.882V551.504C505.882 551.792 505.925 552.048 506.01 552.272C506.096 552.485 506.24 552.656 506.442 552.784C506.656 552.912 506.938 552.976 507.29 552.976C507.376 552.976 507.477 552.971 507.594 552.96C507.712 552.949 507.813 552.939 507.898 552.928V554C507.77 554.032 507.626 554.053 507.466 554.064C507.306 554.085 507.178 554.096 507.082 554.096ZM511.085 554V546.624H509.373V545.424H511.085V544.656C511.085 544.059 511.219 543.557 511.485 543.152C511.752 542.736 512.104 542.421 512.541 542.208C512.979 541.995 513.448 541.888 513.949 541.888C514.056 541.888 514.179 541.899 514.317 541.92C514.456 541.931 514.568 541.947 514.653 541.968V543.056C514.579 543.035 514.477 543.024 514.349 543.024C514.221 543.013 514.131 543.008 514.077 543.008C513.565 543.008 513.139 543.131 512.797 543.376C512.456 543.621 512.285 544.048 512.285 544.656V545.424H514.381V546.624H512.285V554H511.085ZM520.218 554.192C519.408 554.192 518.672 554 518.01 553.616C517.349 553.221 516.821 552.688 516.426 552.016C516.042 551.333 515.85 550.56 515.85 549.696C515.85 548.843 516.042 548.08 516.426 547.408C516.81 546.736 517.328 546.208 517.978 545.824C518.64 545.429 519.386 545.232 520.218 545.232C521.05 545.232 521.792 545.424 522.442 545.808C523.104 546.192 523.621 546.72 523.994 547.392C524.378 548.064 524.57 548.832 524.57 549.696C524.57 550.571 524.373 551.349 523.978 552.032C523.584 552.704 523.056 553.232 522.394 553.616C521.744 554 521.018 554.192 520.218 554.192ZM520.218 552.992C520.794 552.992 521.312 552.848 521.77 552.56C522.24 552.272 522.608 551.877 522.874 551.376C523.152 550.875 523.29 550.315 523.29 549.696C523.29 549.077 523.152 548.523 522.874 548.032C522.608 547.541 522.24 547.152 521.77 546.864C521.312 546.576 520.794 546.432 520.218 546.432C519.642 546.432 519.12 546.576 518.65 546.864C518.192 547.152 517.824 547.541 517.546 548.032C517.269 548.523 517.13 549.077 517.13 549.696C517.13 550.315 517.269 550.875 517.546 551.376C517.824 551.877 518.192 552.272 518.65 552.56C519.12 552.848 519.642 552.992 520.218 552.992ZM526.887 554V545.424H528.087V546.832L527.927 546.624C528.129 546.219 528.433 545.899 528.839 545.664C529.255 545.429 529.756 545.312 530.343 545.312H530.887V546.512H530.135C529.516 546.512 529.02 546.704 528.647 547.088C528.273 547.472 528.087 548.016 528.087 548.72V554H526.887ZM532.493 554V545.424H533.693V547.056L533.501 546.816C533.736 546.315 534.082 545.925 534.541 545.648C535.01 545.371 535.522 545.232 536.077 545.232C536.738 545.232 537.336 545.419 537.869 545.792C538.402 546.165 538.781 546.651 539.005 547.248L538.669 547.264C538.882 546.603 539.25 546.101 539.773 545.76C540.306 545.408 540.893 545.232 541.533 545.232C542.109 545.232 542.637 545.371 543.117 545.648C543.608 545.925 543.997 546.309 544.285 546.8C544.584 547.28 544.733 547.824 544.733 548.432V554H543.533V548.896C543.533 548.373 543.437 547.931 543.245 547.568C543.064 547.205 542.813 546.928 542.493 546.736C542.173 546.533 541.805 546.432 541.389 546.432C540.984 546.432 540.616 546.533 540.285 546.736C539.954 546.928 539.693 547.211 539.501 547.584C539.309 547.947 539.213 548.384 539.213 548.896V554H538.013V548.896C538.013 548.373 537.917 547.931 537.725 547.568C537.544 547.205 537.293 546.928 536.973 546.736C536.653 546.533 536.285 546.432 535.869 546.432C535.453 546.432 535.08 546.533 534.749 546.736C534.429 546.928 534.173 547.211 533.981 547.584C533.789 547.947 533.693 548.384 533.693 548.896V554H532.493Z" fill="white"/>
<g filter="url(#filter1_f_1_46)">
<rect x="394" y="350" width="166" height="166" rx="40" fill="black"/>
</g>
<rect x="380" y="289" width="194" height="194" rx="40" fill="white"/>
<mask id="mask0_1_46" style="mask-type:alpha" maskUnits="userSpaceOnUse" x="413" y="317" width="128" height="138">
<rect x="413.472" y="317" width="126.96" height="138" fill="#C4C4C4"/>
</mask>
<g mask="url(#mask0_1_46)">
<path fill-rule="evenodd" clip-rule="evenodd" d="M505.774 454.702L540.737 454.698L486.416 316.702V316.702C474.993 316.702 464.734 323.69 460.55 334.318L413.163 454.698L448.119 454.702L453.563 440.416L434.138 440.415L476.951 331.658L519.762 440.415L500.33 440.416L505.774 454.702Z" fill="#F50537"/>
<path fill-rule="evenodd" clip-rule="evenodd" d="M505.774 454.702L540.737 454.698L486.416 316.702V316.702C474.993 316.702 464.734 323.69 460.55 334.318L413.163 454.698L448.119 454.702L453.563 440.416L434.138 440.415L476.951 331.658L519.762 440.415L500.33 440.416L505.774 454.702Z" fill="url(#paint0_linear_1_46)" fill-opacity="0.4"/>
<path fill-rule="evenodd" clip-rule="evenodd" d="M505.774 454.702L540.737 454.698L486.416 316.702V316.702C474.993 316.702 464.734 323.69 460.55 334.318L413.163 454.698L448.119 454.702L453.563 440.416L434.138 440.415L476.951 331.658L519.762 440.415L500.33 440.416L505.774 454.702Z" fill="url(#paint1_linear_1_46)" fill-opacity="0.2"/>
<path fill-rule="evenodd" clip-rule="evenodd" d="M524.616 454.702H522.714C506.274 454.702 491.507 444.642 485.49 429.342L484.223 426.121L491.053 423.589C506.856 417.729 517.473 402.455 517.473 385.584C517.473 363.24 499.296 345.063 476.953 345.063C454.603 345.063 436.419 363.24 436.419 385.584C436.419 402.457 447.041 417.73 462.848 423.589L469.685 426.121L468.408 429.363C462.385 444.652 447.624 454.702 431.191 454.702H429.276V440.416H448.699L451.228 433.994C433.572 424.586 422.133 405.945 422.133 385.584C422.133 355.363 446.724 330.777 476.953 330.777C507.173 330.777 531.759 355.363 531.759 385.584C531.759 405.944 520.321 424.585 502.671 433.995L505.196 440.416H524.616V454.702Z" fill="#F50537"/>
<path fill-rule="evenodd" clip-rule="evenodd" d="M505.166 454.702L539.972 454.698L485.895 316.702H476.275C470.708 316.702 465.708 320.123 463.669 325.327L412.972 454.698L447.771 454.702L453.19 440.416L433.852 440.415L476.472 331.658L519.091 440.415L499.747 440.416L505.166 454.702Z" fill="#F50537"/>
<path fill-rule="evenodd" clip-rule="evenodd" d="M505.166 454.702L539.972 454.698L485.895 316.702L-nan -nanL485.895 316.702C474.524 316.702 464.31 323.69 460.145 334.318L412.972 454.698L447.771 454.702L453.19 440.416L433.852 440.415L476.472 331.658L519.091 440.415L499.747 440.416L505.166 454.702Z" fill="url(#paint2_linear_1_46)" fill-opacity="0.4"/>
<path fill-rule="evenodd" clip-rule="evenodd" d="M505.166 454.702L539.972 454.698L485.895 316.702L-nan -nanL485.895 316.702C474.524 316.702 464.31 323.69 460.145 334.318L412.972 454.698L447.771 454.702L453.19 440.416L433.852 440.415L476.472 331.658L519.091 440.415L499.747 440.416L505.166 454.702Z" fill="url(#paint3_linear_1_46)" fill-opacity="0.2"/>
<path fill-rule="evenodd" clip-rule="evenodd" d="M523.869 454.702H502.258C497.809 454.702 493.813 451.962 492.184 447.795L483.707 426.104L490.498 423.57C506.211 417.706 516.767 402.424 516.767 385.542C516.767 363.185 498.694 344.997 476.478 344.997C454.256 344.997 436.176 363.185 436.176 385.542C436.176 402.425 446.738 417.707 462.454 423.57L469.252 426.104L460.759 447.801C459.129 451.965 455.134 454.702 450.687 454.702H429.074V440.407H448.386L450.901 433.981C433.346 424.568 421.972 405.916 421.972 385.542C421.972 355.303 446.423 330.702 476.478 330.702C506.526 330.702 530.972 355.303 530.972 385.542C530.972 405.914 519.599 424.566 502.05 433.983L504.56 440.407H523.869V454.702Z" fill="#F50537"/>
</g>
<path fill-rule="evenodd" clip-rule="evenodd" d="M472.678 507.248C471.754 506.289 470.631 505.809 469.259 505.809C467.886 505.809 466.763 506.289 465.839 507.248C464.916 508.206 464.467 509.417 464.467 510.855C464.467 512.293 464.916 513.479 465.839 514.437C466.763 515.371 467.886 515.85 469.259 515.85C470.631 515.85 471.754 515.371 472.678 514.437C473.601 513.479 474.05 512.293 474.05 510.855C474.05 509.417 473.601 508.206 472.678 507.248ZM475.573 517.111C473.851 518.802 471.754 519.66 469.259 519.66C466.763 519.66 464.641 518.802 462.919 517.111C461.197 515.396 460.349 513.302 460.349 510.855C460.349 508.383 461.197 506.289 462.919 504.573C464.641 502.858 466.763 502 469.259 502C471.754 502 473.851 502.858 475.573 504.573C477.295 506.289 478.169 508.383 478.169 510.855C478.169 513.302 477.295 515.396 475.573 517.111ZM438.11 507.071L440.256 512.621H435.988L438.11 507.071ZM442.802 519.281H447.195L440.206 502.378H437.98C436.774 502.378 435.685 503.111 435.22 504.236L429 519.281H433.418L434.591 516.203H441.629L442.802 519.281ZM454.155 519.281V513.983L460.769 502.378H456.176L452.108 509.795L447.99 502.378H443.498L449.962 514.034V519.281H454.155ZM491.618 519.281L493.068 515.774H485.047L490.936 508.072C492.183 506.442 492.859 504.439 492.859 502.378H479.431V505.885H487.618L480.829 514.514C479.762 515.869 479.182 517.55 479.182 519.281H491.618ZM505.866 512.621L503.719 507.071L501.598 512.621H505.866ZM512.804 519.281H508.411L507.238 516.203H500.2L499.027 519.281H494.609L500.83 504.236C501.295 503.111 502.383 502.378 503.59 502.378H505.816L512.804 519.281ZM519.829 506.011H525.245V502.378H510.32V506.011H515.736V519.281H519.829V506.011Z" fill="#F50537"/>
<path fill-rule="evenodd" clip-rule="evenodd" d="M729.001 260.943C727.944 259.857 726.658 259.314 725.087 259.314C723.515 259.314 722.23 259.857 721.173 260.943C720.115 262.029 719.601 263.4 719.601 265.029C719.601 266.657 720.115 268 721.173 269.086C722.23 270.143 723.515 270.686 725.087 270.686C726.658 270.686 727.944 270.143 729.001 269.086C730.058 268 730.572 266.657 730.572 265.029C730.572 263.4 730.058 262.029 729.001 260.943ZM732.315 272.114C730.344 274.029 727.944 275 725.087 275C722.23 275 719.801 274.029 717.83 272.114C715.858 270.171 714.887 267.8 714.887 265.029C714.887 262.228 715.858 259.857 717.83 257.914C719.801 255.971 722.23 255 725.087 255C727.944 255 730.344 255.971 732.315 257.914C734.287 259.857 735.287 262.228 735.287 265.029C735.287 267.8 734.287 270.171 732.315 272.114ZM689.429 260.743L691.886 267.029H687L689.429 260.743ZM694.8 274.571H699.829L691.828 255.428H689.28C687.899 255.428 686.653 256.258 686.121 257.532L679 274.571H684.057L685.4 271.086H693.457L694.8 274.571ZM707.796 274.571V268.571L715.368 255.429H710.111L705.454 263.828L700.739 255.429H695.597L702.996 268.629V274.571H707.796ZM750.684 274.571L752.343 270.6H743.161L749.903 261.877C751.33 260.03 752.104 257.763 752.104 255.429H736.732V259.4H746.104L738.332 269.173C737.111 270.707 736.447 272.611 736.447 274.571H750.684ZM766.993 267.029L764.536 260.743L762.108 267.029H766.993ZM774.936 274.571H769.908L768.565 271.086H760.508L759.165 274.571H754.108L761.228 257.532C761.761 256.258 763.007 255.428 764.388 255.428H766.936L774.936 274.571ZM782.978 259.543H789.178V255.429H772.093V259.543H778.293V274.571H782.978V259.543Z" fill="#F50537"/>
<path d="M801.826 274.667V255.448H803.889V272.732H812.402V274.667H801.826Z" fill="white"/>
<path d="M814.602 274.667V260.84H816.536V274.667H814.602ZM814.602 258.286V255.448H816.536V258.286H814.602Z" fill="white"/>
<path d="M823.541 274.667L818.149 260.84H820.316L824.856 272.964H824.16L828.726 260.84H830.919L825.475 274.667H823.541Z" fill="white"/>
<path d="M838.576 274.977C837.286 274.977 836.117 274.667 835.068 274.048C834.036 273.412 833.219 272.543 832.617 271.442C832.015 270.342 831.714 269.095 831.714 267.702C831.714 266.309 832.006 265.079 832.591 264.013C833.176 262.929 833.967 262.078 834.964 261.459C835.979 260.84 837.114 260.53 838.37 260.53C839.367 260.53 840.253 260.719 841.027 261.098C841.818 261.459 842.489 261.958 843.039 262.594C843.589 263.213 844.011 263.918 844.303 264.709C844.595 265.483 844.741 266.283 844.741 267.109C844.741 267.28 844.733 267.478 844.716 267.702C844.698 267.908 844.673 268.123 844.638 268.347H832.952V266.541H843.529L842.6 267.315C842.755 266.369 842.643 265.526 842.265 264.787C841.904 264.03 841.379 263.437 840.691 263.007C840.003 262.56 839.23 262.336 838.37 262.336C837.51 262.336 836.71 262.56 835.97 263.007C835.248 263.454 834.681 264.082 834.268 264.89C833.855 265.681 833.692 266.627 833.778 267.728C833.692 268.828 833.864 269.791 834.294 270.617C834.741 271.425 835.343 272.053 836.099 272.5C836.873 272.947 837.699 273.171 838.576 273.171C839.591 273.171 840.442 272.93 841.13 272.448C841.818 271.967 842.377 271.365 842.807 270.643L844.458 271.52C844.183 272.139 843.761 272.715 843.194 273.248C842.626 273.764 841.947 274.185 841.156 274.512C840.382 274.822 839.522 274.977 838.576 274.977Z" fill="white"/>
<path d="M851.119 274.667V257.383H845.805V255.448H858.446V257.383H853.183V274.667H851.119Z" fill="white"/>
<path d="M865.404 274.667L858.361 255.448H860.502L866.693 272.835H866.281L872.446 255.448H874.613L867.57 274.667H865.404Z" fill="white"/>
<path fill-rule="evenodd" clip-rule="evenodd" d="M790.461 372.69C789.626 371.833 788.612 371.405 787.372 371.405C786.131 371.405 785.117 371.833 784.282 372.69C783.448 373.547 783.042 374.629 783.042 375.915C783.042 377.2 783.448 378.26 784.282 379.116C785.117 379.951 786.131 380.379 787.372 380.379C788.612 380.379 789.626 379.951 790.461 379.116C791.295 378.26 791.701 377.2 791.701 375.915C791.701 374.629 791.295 373.547 790.461 372.69ZM793.076 381.506C791.521 383.017 789.626 383.784 787.372 383.784C785.117 383.784 783.2 383.017 781.644 381.506C780.088 379.973 779.322 378.102 779.322 375.915C779.322 373.705 780.088 371.833 781.644 370.3C783.2 368.767 785.117 368 787.372 368C789.626 368 791.521 368.767 793.076 370.3C794.632 371.833 795.421 373.705 795.421 375.915C795.421 378.102 794.632 379.973 793.076 381.506ZM759.23 372.532L761.169 377.493H757.314L759.23 372.532ZM763.469 383.446H767.438L761.124 368.338H759.113C758.023 368.338 757.04 368.993 756.62 369.998L751 383.446H754.991L756.051 380.695H762.41L763.469 383.446ZM773.726 383.446V378.71L779.701 368.338H775.552L771.877 374.967L768.157 368.338H764.098L769.938 378.756V383.446H773.726ZM807.572 383.446L808.882 380.311H801.636L806.956 373.427C808.082 371.97 808.693 370.18 808.693 368.338H796.562V371.472H803.958L797.825 379.185C796.861 380.396 796.337 381.898 796.337 383.446H807.572ZM820.444 377.493L818.505 372.532L816.588 377.493H820.444ZM826.713 383.446H822.744L821.684 380.695H815.326L814.266 383.446H810.275L815.894 369.998C816.315 368.993 817.298 368.338 818.388 368.338H820.399L826.713 383.446ZM833.059 371.585H837.952V368.338H824.468V371.585H829.361V383.446H833.059V371.585Z" fill="#F50537"/>
<path d="M847.934 383.521V368.354H853.145C854.136 368.354 855.005 368.551 855.751 368.944C856.498 369.324 857.075 369.867 857.482 370.573C857.903 371.265 858.113 372.073 858.113 372.996C858.113 373.918 857.903 374.726 857.482 375.418C857.075 376.11 856.498 376.653 855.751 377.047C855.018 377.427 854.15 377.617 853.145 377.617H849.562V383.521H847.934ZM849.562 376.09H853.227C853.878 376.09 854.448 375.968 854.937 375.724C855.426 375.466 855.806 375.106 856.077 374.645C856.349 374.17 856.484 373.613 856.484 372.975C856.484 372.337 856.349 371.788 856.077 371.326C855.806 370.865 855.426 370.512 854.937 370.267C854.448 370.01 853.878 369.881 853.227 369.881H849.562V376.09Z" fill="white"/>
<path d="M862.623 383.765C861.931 383.765 861.314 383.636 860.771 383.379C860.228 383.107 859.8 382.741 859.488 382.279C859.176 381.818 859.02 381.288 859.02 380.691C859.02 380.121 859.142 379.605 859.386 379.144C859.631 378.669 860.011 378.268 860.526 377.943C861.042 377.617 861.7 377.386 862.501 377.251L866.776 376.538V377.922L862.868 378.574C862.08 378.71 861.51 378.961 861.157 379.327C860.818 379.694 860.648 380.128 860.648 380.63C860.648 381.119 860.838 381.533 861.219 381.872C861.612 382.211 862.114 382.381 862.725 382.381C863.472 382.381 864.123 382.225 864.679 381.913C865.236 381.587 865.67 381.153 865.982 380.61C866.295 380.067 866.451 379.463 866.451 378.798V376.029C866.451 375.378 866.213 374.848 865.738 374.441C865.263 374.034 864.646 373.83 863.886 373.83C863.22 373.83 862.637 374 862.135 374.339C861.632 374.665 861.259 375.093 861.015 375.622L859.631 374.869C859.834 374.407 860.153 373.986 860.587 373.606C861.035 373.226 861.544 372.928 862.114 372.711C862.684 372.48 863.275 372.364 863.886 372.364C864.686 372.364 865.392 372.521 866.003 372.833C866.627 373.145 867.109 373.579 867.448 374.136C867.801 374.679 867.978 375.31 867.978 376.029V383.521H866.451V381.343L866.675 381.567C866.485 381.974 866.186 382.347 865.779 382.686C865.385 383.012 864.917 383.277 864.374 383.48C863.845 383.67 863.261 383.765 862.623 383.765Z" fill="white"/>
<path d="M870.833 388C870.616 388 870.392 387.98 870.161 387.939C869.944 387.912 869.727 387.857 869.51 387.776V386.351C869.646 386.365 869.815 386.385 870.019 386.412C870.236 386.453 870.453 386.473 870.67 386.473C871.335 386.473 871.844 386.331 872.197 386.046C872.55 385.774 872.896 385.245 873.236 384.458L873.928 382.829L873.887 384.173L869.266 372.609H870.915L874.701 382.157H874.274L878.04 372.609H879.73L874.742 384.905C874.525 385.435 874.247 385.937 873.907 386.412C873.582 386.887 873.168 387.267 872.666 387.552C872.163 387.851 871.553 388 870.833 388Z" fill="white"/>
<path d="M881.239 383.521V368.354H886.451C887.442 368.354 888.311 368.551 889.057 368.944C889.804 369.324 890.38 369.867 890.788 370.573C891.208 371.265 891.419 372.073 891.419 372.996C891.419 373.918 891.208 374.726 890.788 375.418C890.38 376.11 889.804 376.653 889.057 377.047C888.324 377.427 887.456 377.617 886.451 377.617H882.868V383.521H881.239ZM882.868 376.09H886.533C887.184 376.09 887.754 375.968 888.243 375.724C888.731 375.466 889.111 375.106 889.383 374.645C889.654 374.17 889.79 373.613 889.79 372.975C889.79 372.337 889.654 371.788 889.383 371.326C889.111 370.865 888.731 370.512 888.243 370.267C887.754 370.01 887.184 369.881 886.533 369.881H882.868V376.09Z" fill="white"/>
<path d="M898.158 383.765C897.14 383.765 896.218 383.521 895.39 383.032C894.575 382.53 893.931 381.845 893.456 380.976C892.98 380.108 892.743 379.124 892.743 378.024C892.743 376.925 892.974 375.954 893.435 375.113C893.897 374.258 894.521 373.586 895.308 373.097C896.109 372.609 897.005 372.364 897.996 372.364C898.783 372.364 899.482 372.514 900.093 372.812C900.717 373.097 901.246 373.491 901.68 373.993C902.115 374.482 902.447 375.038 902.678 375.663C902.909 376.273 903.024 376.904 903.024 377.556C903.024 377.692 903.017 377.848 903.004 378.024C902.99 378.187 902.97 378.357 902.943 378.533H893.72V377.108H902.067L901.334 377.719C901.457 376.972 901.368 376.307 901.07 375.724C900.785 375.126 900.371 374.658 899.828 374.319C899.285 373.966 898.674 373.79 897.996 373.79C897.317 373.79 896.686 373.966 896.102 374.319C895.532 374.672 895.084 375.167 894.758 375.805C894.433 376.429 894.304 377.176 894.372 378.045C894.304 378.913 894.44 379.673 894.779 380.325C895.132 380.963 895.607 381.458 896.204 381.811C896.815 382.164 897.466 382.34 898.158 382.34C898.959 382.34 899.631 382.15 900.174 381.77C900.717 381.39 901.158 380.915 901.497 380.345L902.8 381.037C902.583 381.526 902.251 381.981 901.803 382.401C901.355 382.809 900.819 383.141 900.194 383.399C899.584 383.643 898.905 383.765 898.158 383.765Z" fill="white"/>
<path d="M905.207 383.521V372.609H906.734V374.4L906.531 374.136C906.789 373.62 907.175 373.213 907.691 372.914C908.22 372.616 908.858 372.466 909.605 372.466H910.297V373.993H909.34C908.553 373.993 907.922 374.237 907.447 374.726C906.972 375.215 906.734 375.907 906.734 376.803V383.521H905.207Z" fill="white"/>
<path d="M915.792 383.521L910.234 368.354H911.924L916.81 382.076H916.484L921.35 368.354H923.06L917.502 383.521H915.792Z" fill="white"/>
<path d="M924.349 383.521V372.609H925.876V383.521H924.349ZM924.349 370.593V368.354H925.876V370.593H924.349Z" fill="white"/>
<path d="M933.46 383.765C932.442 383.765 931.519 383.521 930.691 383.032C929.877 382.53 929.232 381.845 928.757 380.976C928.282 380.108 928.045 379.124 928.045 378.024C928.045 376.925 928.276 375.954 928.737 375.113C929.198 374.258 929.823 373.586 930.61 373.097C931.411 372.609 932.307 372.364 933.297 372.364C934.085 372.364 934.784 372.514 935.394 372.812C936.019 373.097 936.548 373.491 936.982 373.993C937.417 374.482 937.749 375.038 937.98 375.663C938.211 376.273 938.326 376.904 938.326 377.556C938.326 377.692 938.319 377.848 938.306 378.024C938.292 378.187 938.272 378.357 938.245 378.533H929.022V377.108H937.369L936.636 377.719C936.758 376.972 936.67 376.307 936.372 375.724C936.087 375.126 935.673 374.658 935.13 374.319C934.587 373.966 933.976 373.79 933.297 373.79C932.619 373.79 931.988 373.966 931.404 374.319C930.834 374.672 930.386 375.167 930.06 375.805C929.735 376.429 929.606 377.176 929.674 378.045C929.606 378.913 929.741 379.673 930.081 380.325C930.434 380.963 930.909 381.458 931.506 381.811C932.117 382.164 932.768 382.34 933.46 382.34C934.261 382.34 934.933 382.15 935.476 381.77C936.019 381.39 936.46 380.915 936.799 380.345L938.102 381.037C937.885 381.526 937.552 381.981 937.104 382.401C936.657 382.809 936.12 383.141 935.496 383.399C934.885 383.643 934.207 383.765 933.46 383.765Z" fill="white"/>
<path d="M942.911 383.521L939.165 372.609H940.896L943.991 382.157H943.38L946.291 372.609H947.818L950.729 382.157H950.119L953.233 372.609H954.944L951.198 383.521H949.671L946.841 374.176H947.268L944.438 383.521H942.911Z" fill="white"/>
<path fill-rule="evenodd" clip-rule="evenodd" d="M816.001 486.943C814.944 485.857 813.658 485.314 812.087 485.314C810.515 485.314 809.23 485.857 808.173 486.943C807.115 488.029 806.601 489.4 806.601 491.029C806.601 492.657 807.115 494 808.173 495.086C809.23 496.143 810.515 496.686 812.087 496.686C813.658 496.686 814.944 496.143 816.001 495.086C817.058 494 817.572 492.657 817.572 491.029C817.572 489.4 817.058 488.029 816.001 486.943ZM819.315 498.114C817.344 500.029 814.944 501 812.087 501C809.23 501 806.801 500.029 804.83 498.114C802.858 496.171 801.887 493.8 801.887 491.029C801.887 488.228 802.858 485.857 804.83 483.914C806.801 481.971 809.23 481 812.087 481C814.944 481 817.344 481.971 819.315 483.914C821.287 485.857 822.287 488.228 822.287 491.029C822.287 493.8 821.287 496.171 819.315 498.114ZM776.429 486.743L778.886 493.029H774L776.429 486.743ZM781.8 500.571H786.829L778.828 481.428H776.28C774.899 481.428 773.653 482.258 773.121 483.532L766 500.571H771.057L772.4 497.086H780.457L781.8 500.571ZM794.796 500.571V494.571L802.368 481.429H797.111L792.454 489.828L787.739 481.429H782.597L789.996 494.629V500.571H794.796ZM837.684 500.571L839.343 496.6H830.161L836.903 487.877C838.33 486.03 839.104 483.763 839.104 481.429H823.732V485.4H833.104L825.332 495.173C824.111 496.707 823.447 498.611 823.447 500.571H837.684ZM853.993 493.029L851.536 486.743L849.108 493.029H853.993ZM861.936 500.571H856.908L855.565 497.086H847.508L846.165 500.571H841.108L848.228 483.532C848.761 482.258 850.007 481.428 851.388 481.428H853.936L861.936 500.571ZM869.978 485.543H876.178V481.429H859.093V485.543H865.293V500.571H869.978V485.543Z" fill="#F50537"/>
<path d="M888.826 500.667V481.448H895.43C896.686 481.448 897.786 481.698 898.732 482.196C899.678 482.678 900.409 483.366 900.925 484.26C901.458 485.137 901.725 486.16 901.725 487.33C901.725 488.689 901.363 489.849 900.641 490.813C899.936 491.776 898.973 492.455 897.752 492.85L902.241 500.667H899.816L895.121 492.386L896.514 493.186H890.89V500.667H888.826ZM890.89 491.251H895.533C896.359 491.251 897.081 491.096 897.7 490.787C898.319 490.46 898.801 490.004 899.145 489.419C899.489 488.818 899.661 488.112 899.661 487.304C899.661 486.496 899.489 485.799 899.145 485.215C898.801 484.63 898.319 484.183 897.7 483.873C897.081 483.546 896.359 483.383 895.533 483.383H890.89V491.251Z" fill="white"/>
<path d="M908.422 500.976C907.545 500.976 906.763 500.813 906.075 500.486C905.387 500.142 904.845 499.678 904.449 499.093C904.054 498.509 903.856 497.838 903.856 497.081C903.856 496.359 904.011 495.705 904.32 495.121C904.63 494.519 905.112 494.011 905.765 493.599C906.419 493.186 907.253 492.893 908.267 492.721L913.685 491.819V493.573L908.732 494.398C907.734 494.57 907.012 494.888 906.565 495.353C906.135 495.817 905.92 496.367 905.92 497.004C905.92 497.623 906.161 498.147 906.642 498.577C907.141 499.007 907.777 499.222 908.551 499.222C909.497 499.222 910.323 499.025 911.028 498.629C911.733 498.216 912.283 497.666 912.679 496.978C913.074 496.29 913.272 495.525 913.272 494.682V491.174C913.272 490.348 912.971 489.677 912.369 489.162C911.767 488.646 910.985 488.388 910.022 488.388C909.179 488.388 908.439 488.603 907.803 489.033C907.167 489.445 906.694 489.987 906.384 490.658L904.63 489.703C904.888 489.119 905.292 488.585 905.842 488.104C906.41 487.622 907.055 487.244 907.777 486.969C908.5 486.676 909.248 486.53 910.022 486.53C911.036 486.53 911.931 486.728 912.704 487.124C913.496 487.519 914.106 488.069 914.536 488.775C914.983 489.462 915.207 490.262 915.207 491.174V500.667H913.272V497.907L913.556 498.19C913.315 498.706 912.937 499.179 912.421 499.609C911.922 500.022 911.329 500.357 910.641 500.615C909.97 500.856 909.23 500.976 908.422 500.976Z" fill="white"/>
<path d="M924.784 500.976C923.494 500.976 922.334 500.667 921.302 500.048C920.27 499.411 919.453 498.552 918.851 497.468C918.266 496.367 917.974 495.129 917.974 493.753C917.974 492.36 918.266 491.122 918.851 490.039C919.453 488.955 920.261 488.104 921.276 487.485C922.308 486.848 923.477 486.53 924.784 486.53C925.971 486.53 927.029 486.788 927.957 487.304C928.886 487.82 929.617 488.517 930.15 489.394L929.84 489.935V481.139H931.775V500.667H929.84V497.571L930.15 497.855C929.668 498.853 928.946 499.626 927.983 500.177C927.037 500.71 925.971 500.976 924.784 500.976ZM924.887 499.042C925.816 499.042 926.65 498.81 927.39 498.345C928.146 497.881 928.74 497.253 929.17 496.462C929.617 495.654 929.84 494.751 929.84 493.753C929.84 492.756 929.617 491.862 929.17 491.07C928.74 490.262 928.146 489.626 927.39 489.162C926.65 488.697 925.816 488.465 924.887 488.465C923.976 488.465 923.15 488.697 922.411 489.162C921.671 489.626 921.087 490.254 920.657 491.045C920.244 491.836 920.038 492.739 920.038 493.753C920.038 494.751 920.244 495.654 920.657 496.462C921.087 497.253 921.663 497.881 922.385 498.345C923.125 498.81 923.959 499.042 924.887 499.042Z" fill="white"/>
<path d="M935.103 500.667V486.84H937.038V500.667H935.103ZM935.103 484.286V481.448H937.038V484.286H935.103Z" fill="white"/>
<path d="M946.828 500.976C945.521 500.976 944.334 500.667 943.268 500.048C942.202 499.411 941.35 498.552 940.714 497.468C940.095 496.367 939.785 495.121 939.785 493.728C939.785 492.352 940.095 491.122 940.714 490.039C941.333 488.955 942.167 488.104 943.216 487.485C944.283 486.848 945.486 486.53 946.828 486.53C948.169 486.53 949.365 486.84 950.414 487.459C951.48 488.078 952.314 488.929 952.916 490.013C953.535 491.096 953.845 492.335 953.845 493.728C953.845 495.138 953.526 496.393 952.89 497.494C952.254 498.577 951.403 499.429 950.336 500.048C949.287 500.667 948.118 500.976 946.828 500.976ZM946.828 499.042C947.757 499.042 948.591 498.81 949.33 498.345C950.087 497.881 950.68 497.245 951.11 496.436C951.557 495.628 951.781 494.725 951.781 493.728C951.781 492.73 951.557 491.836 951.11 491.045C950.68 490.254 950.087 489.626 949.33 489.162C948.591 488.697 947.757 488.465 946.828 488.465C945.899 488.465 945.056 488.697 944.3 489.162C943.56 489.626 942.967 490.254 942.52 491.045C942.073 491.836 941.849 492.73 941.849 493.728C941.849 494.725 942.073 495.628 942.52 496.436C942.967 497.245 943.56 497.881 944.3 498.345C945.056 498.81 945.899 499.042 946.828 499.042Z" fill="white"/>
<path fill-rule="evenodd" clip-rule="evenodd" d="M106.001 260.943C104.944 259.857 103.658 259.314 102.087 259.314C100.515 259.314 99.2295 259.857 98.1726 260.943C97.1155 262.029 96.6011 263.4 96.6011 265.029C96.6011 266.657 97.1155 268 98.1726 269.086C99.2295 270.143 100.515 270.686 102.087 270.686C103.658 270.686 104.944 270.143 106.001 269.086C107.058 268 107.572 266.657 107.572 265.029C107.572 263.4 107.058 262.029 106.001 260.943ZM109.315 272.114C107.344 274.029 104.944 275 102.087 275C99.2295 275 96.8011 274.029 94.8298 272.114C92.8582 270.171 91.8869 267.8 91.8869 265.029C91.8869 262.228 92.8582 259.857 94.8298 257.914C96.8011 255.971 99.2295 255 102.087 255C104.944 255 107.344 255.971 109.315 257.914C111.287 259.857 112.287 262.228 112.287 265.029C112.287 267.8 111.287 270.171 109.315 272.114ZM66.4286 260.743L68.8857 267.029H64.0001L66.4286 260.743ZM71.8 274.571H76.8286L68.8285 255.428H66.2802C64.8992 255.428 63.6532 256.258 63.121 257.532L56 274.571H61.0572L62.3999 271.086H70.4572L71.8 274.571ZM84.7964 274.571V268.571L92.3679 255.429H87.1107L82.4535 263.828L77.7393 255.429H72.5965L79.9964 268.629V274.571H84.7964ZM127.684 274.571L129.343 270.6H120.161L126.903 261.877C128.33 260.03 129.104 257.763 129.104 255.429H113.732V259.4H123.104L115.332 269.173C114.111 270.707 113.447 272.611 113.447 274.571H127.684ZM143.993 267.029L141.536 260.743L139.108 267.029H143.993ZM151.936 274.571H146.908L145.565 271.086H137.508L136.165 274.571H131.108L138.228 257.532C138.761 256.258 140.007 255.428 141.388 255.428H143.936L151.936 274.571ZM159.978 259.543H166.178V255.429H149.093V259.543H155.293V274.571H159.978V259.543Z" fill="#F50537"/>
<path d="M178.826 274.667V255.448H185.43C186.686 255.448 187.786 255.698 188.732 256.196C189.678 256.678 190.409 257.366 190.925 258.26C191.458 259.137 191.725 260.16 191.725 261.33C191.725 262.499 191.458 263.523 190.925 264.4C190.409 265.277 189.678 265.965 188.732 266.464C187.803 266.945 186.703 267.186 185.43 267.186H180.89V274.667H178.826ZM180.89 265.251H185.533C186.359 265.251 187.081 265.096 187.7 264.787C188.319 264.46 188.801 264.004 189.145 263.419C189.489 262.818 189.661 262.112 189.661 261.304C189.661 260.496 189.489 259.799 189.145 259.215C188.801 258.63 188.319 258.183 187.7 257.873C187.081 257.546 186.359 257.383 185.533 257.383H180.89V265.251Z" fill="white"/>
<path d="M200.445 274.976C199.138 274.976 197.951 274.667 196.885 274.048C195.819 273.411 194.968 272.552 194.331 271.468C193.712 270.367 193.403 269.121 193.403 267.728C193.403 266.352 193.712 265.122 194.331 264.039C194.95 262.955 195.785 262.104 196.834 261.485C197.9 260.848 199.104 260.53 200.445 260.53C201.787 260.53 202.982 260.84 204.031 261.459C205.097 262.078 205.931 262.929 206.533 264.013C207.152 265.096 207.462 266.335 207.462 267.728C207.462 269.138 207.144 270.393 206.507 271.494C205.871 272.577 205.02 273.429 203.954 274.048C202.904 274.667 201.735 274.976 200.445 274.976ZM200.445 273.042C201.374 273.042 202.208 272.81 202.947 272.345C203.704 271.881 204.298 271.245 204.727 270.436C205.175 269.628 205.398 268.725 205.398 267.728C205.398 266.73 205.175 265.836 204.727 265.045C204.298 264.254 203.704 263.626 202.947 263.162C202.208 262.697 201.374 262.465 200.445 262.465C199.516 262.465 198.674 262.697 197.917 263.162C197.178 263.626 196.584 264.254 196.137 265.045C195.69 265.836 195.466 266.73 195.466 267.728C195.466 268.725 195.69 269.628 196.137 270.436C196.584 271.245 197.178 271.881 197.917 272.345C198.674 272.81 199.516 273.042 200.445 273.042Z" fill="white"/>
<path d="M216.472 274.976C215.182 274.976 214.021 274.667 212.99 274.048C211.958 273.411 211.141 272.552 210.539 271.468C209.954 270.367 209.662 269.129 209.662 267.753C209.662 266.36 209.954 265.122 210.539 264.039C211.141 262.955 211.949 262.104 212.964 261.485C213.996 260.848 215.165 260.53 216.472 260.53C217.659 260.53 218.716 260.788 219.645 261.304C220.574 261.82 221.305 262.517 221.838 263.394L221.528 263.935V255.139H223.463V274.667H221.528V271.571L221.838 271.855C221.356 272.853 220.634 273.626 219.671 274.177C218.725 274.71 217.659 274.976 216.472 274.976ZM216.575 273.042C217.504 273.042 218.338 272.81 219.078 272.345C219.834 271.881 220.428 271.253 220.858 270.462C221.305 269.654 221.528 268.751 221.528 267.753C221.528 266.756 221.305 265.862 220.858 265.07C220.428 264.262 219.834 263.626 219.078 263.162C218.338 262.697 217.504 262.465 216.575 262.465C215.664 262.465 214.838 262.697 214.099 263.162C213.359 263.626 212.775 264.254 212.345 265.045C211.932 265.836 211.725 266.739 211.725 267.753C211.725 268.751 211.932 269.654 212.345 270.462C212.775 271.253 213.351 271.881 214.073 272.345C214.813 272.81 215.647 273.042 216.575 273.042Z" fill="white"/>
<path d="M233.111 274.976C231.752 274.976 230.557 274.658 229.525 274.022C228.493 273.386 227.685 272.526 227.1 271.442C226.515 270.342 226.223 269.103 226.223 267.728C226.223 266.352 226.515 265.122 227.1 264.039C227.685 262.955 228.493 262.104 229.525 261.485C230.557 260.848 231.752 260.53 233.111 260.53C233.971 260.53 234.779 260.685 235.536 260.995C236.293 261.304 236.963 261.725 237.548 262.259C238.133 262.775 238.571 263.376 238.864 264.064L237.109 264.967C236.765 264.228 236.241 263.626 235.536 263.162C234.831 262.697 234.022 262.465 233.111 262.465C232.199 262.465 231.374 262.697 230.634 263.162C229.912 263.609 229.336 264.236 228.906 265.045C228.493 265.836 228.287 266.739 228.287 267.753C228.287 268.751 228.493 269.654 228.906 270.462C229.336 271.253 229.912 271.881 230.634 272.345C231.374 272.81 232.199 273.042 233.111 273.042C234.022 273.042 234.822 272.81 235.51 272.345C236.215 271.881 236.748 271.262 237.109 270.488L238.864 271.442C238.571 272.113 238.133 272.715 237.548 273.248C236.963 273.781 236.293 274.203 235.536 274.512C234.779 274.822 233.971 274.976 233.111 274.976Z" fill="white"/>
<path d="M245.36 274.976C244.483 274.976 243.701 274.813 243.013 274.486C242.325 274.142 241.783 273.678 241.388 273.093C240.992 272.509 240.794 271.838 240.794 271.081C240.794 270.359 240.949 269.705 241.259 269.121C241.568 268.519 242.05 268.011 242.703 267.599C243.357 267.186 244.191 266.893 245.206 266.721L250.623 265.819V267.573L245.67 268.398C244.672 268.57 243.95 268.888 243.503 269.353C243.073 269.817 242.858 270.367 242.858 271.004C242.858 271.623 243.099 272.147 243.58 272.577C244.079 273.007 244.715 273.222 245.489 273.222C246.435 273.222 247.261 273.025 247.966 272.629C248.671 272.216 249.221 271.666 249.617 270.978C250.012 270.29 250.21 269.525 250.21 268.682V265.174C250.21 264.348 249.909 263.677 249.307 263.162C248.705 262.646 247.923 262.388 246.96 262.388C246.117 262.388 245.378 262.603 244.741 263.033C244.105 263.445 243.632 263.987 243.322 264.658L241.568 263.703C241.826 263.119 242.23 262.585 242.781 262.104C243.348 261.622 243.993 261.244 244.715 260.969C245.438 260.676 246.186 260.53 246.96 260.53C247.974 260.53 248.869 260.728 249.643 261.124C250.434 261.519 251.044 262.069 251.474 262.775C251.921 263.462 252.145 264.262 252.145 265.174V274.667H250.21V271.907L250.494 272.19C250.253 272.706 249.875 273.179 249.359 273.609C248.86 274.022 248.267 274.357 247.579 274.615C246.908 274.856 246.169 274.976 245.36 274.976Z" fill="white"/>
<path d="M260.278 274.976C258.954 274.976 257.793 274.641 256.795 273.97C255.798 273.3 255.075 272.388 254.628 271.236L256.254 270.462C256.649 271.305 257.199 271.975 257.905 272.474C258.627 272.973 259.418 273.222 260.278 273.222C261.103 273.222 261.8 273.025 262.367 272.629C262.935 272.216 263.219 271.683 263.219 271.03C263.219 270.548 263.081 270.17 262.806 269.894C262.531 269.602 262.213 269.379 261.851 269.224C261.49 269.069 261.172 268.957 260.897 268.888L258.911 268.321C257.638 267.96 256.718 267.452 256.15 266.799C255.583 266.145 255.299 265.389 255.299 264.529C255.299 263.72 255.505 263.015 255.918 262.413C256.331 261.811 256.89 261.347 257.595 261.02C258.3 260.694 259.083 260.53 259.942 260.53C261.112 260.53 262.17 260.84 263.116 261.459C264.079 262.061 264.758 262.904 265.153 263.987L263.502 264.761C263.158 263.987 262.66 263.385 262.006 262.955C261.37 262.508 260.656 262.284 259.865 262.284C259.091 262.284 258.472 262.482 258.008 262.878C257.543 263.273 257.311 263.772 257.311 264.374C257.311 264.838 257.432 265.208 257.672 265.483C257.913 265.758 258.188 265.965 258.498 266.102C258.825 266.24 259.108 266.343 259.349 266.412L261.645 267.083C262.763 267.409 263.631 267.917 264.251 268.605C264.887 269.293 265.205 270.101 265.205 271.03C265.205 271.786 264.99 272.466 264.56 273.068C264.147 273.669 263.571 274.142 262.832 274.486C262.092 274.813 261.241 274.976 260.278 274.976Z" fill="white"/>
<path d="M273.248 274.822C272.01 274.822 271.056 274.461 270.385 273.738C269.714 273.016 269.379 271.984 269.379 270.643V262.775H266.825V260.84H267.47C268.054 260.84 268.519 260.651 268.863 260.272C269.207 259.877 269.379 259.387 269.379 258.802V257.641H271.313V260.84H274.358V262.775H271.313V270.643C271.313 271.107 271.382 271.52 271.52 271.881C271.657 272.225 271.89 272.5 272.216 272.706C272.56 272.913 273.016 273.016 273.584 273.016C273.721 273.016 273.885 273.007 274.074 272.99C274.263 272.973 274.426 272.956 274.564 272.939V274.667C274.358 274.719 274.125 274.753 273.867 274.77C273.609 274.805 273.403 274.822 273.248 274.822Z" fill="white"/>
<path fill-rule="evenodd" clip-rule="evenodd" d="M57.0011 370.943C55.9439 369.857 54.6582 369.314 53.0869 369.314C51.5153 369.314 50.2295 369.857 49.1726 370.943C48.1155 372.029 47.6011 373.4 47.6011 375.029C47.6011 376.657 48.1155 378 49.1726 379.086C50.2295 380.143 51.5153 380.686 53.0869 380.686C54.6582 380.686 55.9439 380.143 57.0011 379.086C58.0583 378 58.5724 376.657 58.5724 375.029C58.5724 373.4 58.0583 372.029 57.0011 370.943ZM60.3154 382.114C58.3441 384.029 55.9439 385 53.0869 385C50.2295 385 47.8011 384.029 45.8298 382.114C43.8582 380.171 42.8869 377.8 42.8869 375.029C42.8869 372.228 43.8582 369.857 45.8298 367.914C47.8011 365.971 50.2295 365 53.0869 365C55.9439 365 58.3441 365.971 60.3154 367.914C62.2869 369.857 63.2869 372.228 63.2869 375.029C63.2869 377.8 62.2869 380.171 60.3154 382.114ZM17.4286 370.743L19.8857 377.029H15.0001L17.4286 370.743ZM22.8 384.571H27.8286L19.8285 365.428H17.2802C15.8992 365.428 14.6532 366.258 14.121 367.532L7 384.571H12.0572L13.3999 381.086H21.4572L22.8 384.571ZM35.7964 384.571V378.571L43.3679 365.429H38.1107L33.4535 373.828L28.7393 365.429H23.5965L30.9964 378.629V384.571H35.7964ZM78.6837 384.571L80.3434 380.6H71.1609L77.9026 371.877C79.3296 370.03 80.104 367.763 80.104 365.429H64.7324V369.4H74.1041L66.3321 379.173C65.1114 380.707 64.4468 382.611 64.4468 384.571H78.6837ZM94.9935 377.029L92.5361 370.743L90.1076 377.029H94.9935ZM102.936 384.571H97.9077L96.5648 381.086H88.5077L87.165 384.571H82.1078L89.2285 367.532C89.761 366.258 91.0069 365.428 92.388 365.428H94.9363L102.936 384.571ZM110.978 369.543H117.178V365.429H100.093V369.543H106.293V384.571H110.978V369.543Z" fill="#F50537"/>
<path d="M129.826 384.667V365.448H131.632L138.855 375.922H137.849L145.046 365.448H146.852V384.667H144.788V368.234L145.459 368.492L138.391 378.734H138.288L131.245 368.492L131.89 368.234V384.667H129.826Z" fill="white"/>
<path d="M155.364 384.977C154.4 384.977 153.523 384.753 152.732 384.306C151.941 383.842 151.313 383.205 150.849 382.397C150.402 381.571 150.178 380.626 150.178 379.559V370.84H152.113V379.327C152.113 380.067 152.259 380.72 152.552 381.288C152.861 381.838 153.283 382.268 153.816 382.578C154.366 382.887 154.994 383.042 155.699 383.042C156.404 383.042 157.032 382.887 157.582 382.578C158.132 382.251 158.562 381.795 158.872 381.21C159.181 380.608 159.336 379.895 159.336 379.069V370.84H161.271V384.667H159.336V381.984L159.775 382.087C159.448 382.982 158.889 383.687 158.098 384.203C157.307 384.719 156.395 384.977 155.364 384.977Z" fill="white"/>
<path d="M169.403 384.977C168.079 384.977 166.918 384.641 165.921 383.971C164.923 383.3 164.201 382.388 163.754 381.236L165.379 380.462C165.775 381.305 166.325 381.976 167.03 382.474C167.752 382.973 168.543 383.222 169.403 383.222C170.229 383.222 170.925 383.025 171.493 382.629C172.06 382.216 172.344 381.683 172.344 381.03C172.344 380.548 172.207 380.17 171.931 379.895C171.656 379.602 171.338 379.379 170.977 379.224C170.616 379.069 170.298 378.957 170.022 378.889L168.036 378.321C166.763 377.96 165.843 377.453 165.276 376.799C164.708 376.146 164.424 375.389 164.424 374.529C164.424 373.721 164.631 373.015 165.044 372.414C165.456 371.812 166.015 371.347 166.72 371.021C167.426 370.694 168.208 370.53 169.068 370.53C170.237 370.53 171.295 370.84 172.241 371.459C173.204 372.061 173.883 372.904 174.279 373.987L172.628 374.761C172.284 373.987 171.785 373.385 171.132 372.955C170.495 372.508 169.782 372.285 168.991 372.285C168.217 372.285 167.598 372.482 167.133 372.878C166.669 373.273 166.437 373.772 166.437 374.374C166.437 374.838 166.557 375.208 166.798 375.483C167.039 375.759 167.314 375.965 167.623 376.103C167.95 376.24 168.234 376.343 168.475 376.412L170.771 377.083C171.888 377.41 172.757 377.917 173.376 378.605C174.012 379.293 174.33 380.101 174.33 381.03C174.33 381.786 174.116 382.466 173.686 383.068C173.273 383.67 172.697 384.143 171.957 384.487C171.218 384.813 170.366 384.977 169.403 384.977Z" fill="white"/>
<path d="M177.085 384.667V370.84H179.02V384.667H177.085ZM177.085 368.286V365.448H179.02V368.286H177.085Z" fill="white"/>
<path d="M188.656 384.977C187.297 384.977 186.102 384.658 185.07 384.022C184.038 383.386 183.23 382.526 182.645 381.442C182.06 380.342 181.768 379.104 181.768 377.728C181.768 376.352 182.06 375.122 182.645 374.039C183.23 372.955 184.038 372.104 185.07 371.485C186.102 370.849 187.297 370.53 188.656 370.53C189.516 370.53 190.324 370.685 191.081 370.995C191.837 371.304 192.508 371.726 193.093 372.259C193.677 372.775 194.116 373.377 194.408 374.065L192.654 374.967C192.31 374.228 191.786 373.626 191.081 373.162C190.375 372.697 189.567 372.465 188.656 372.465C187.744 372.465 186.919 372.697 186.179 373.162C185.457 373.609 184.881 374.237 184.451 375.045C184.038 375.836 183.832 376.739 183.832 377.754C183.832 378.751 184.038 379.654 184.451 380.462C184.881 381.253 185.457 381.881 186.179 382.345C186.919 382.81 187.744 383.042 188.656 383.042C189.567 383.042 190.367 382.81 191.055 382.345C191.76 381.881 192.293 381.262 192.654 380.488L194.408 381.442C194.116 382.113 193.677 382.715 193.093 383.248C192.508 383.781 191.837 384.203 191.081 384.512C190.324 384.822 189.516 384.977 188.656 384.977Z" fill="white"/>
<path fill-rule="evenodd" clip-rule="evenodd" d="M50.0011 483.943C48.9439 482.857 47.6582 482.314 46.0869 482.314C44.5153 482.314 43.2295 482.857 42.1726 483.943C41.1155 485.029 40.6011 486.4 40.6011 488.029C40.6011 489.657 41.1155 491 42.1726 492.086C43.2295 493.143 44.5153 493.686 46.0869 493.686C47.6582 493.686 48.9439 493.143 50.0011 492.086C51.0583 491 51.5724 489.657 51.5724 488.029C51.5724 486.4 51.0583 485.029 50.0011 483.943ZM53.3154 495.114C51.3441 497.029 48.9439 498 46.0869 498C43.2295 498 40.8011 497.029 38.8298 495.114C36.8582 493.171 35.8869 490.8 35.8869 488.029C35.8869 485.228 36.8582 482.857 38.8298 480.914C40.8011 478.971 43.2295 478 46.0869 478C48.9439 478 51.3441 478.971 53.3154 480.914C55.2869 482.857 56.2869 485.228 56.2869 488.029C56.2869 490.8 55.2869 493.171 53.3154 495.114ZM10.4286 483.743L12.8857 490.029H8.0001L10.4286 483.743ZM15.8 497.571H20.8286L12.8285 478.428H10.2802C8.89916 478.428 7.65325 479.258 7.12096 480.532L0 497.571H5.05721L6.39993 494.086H14.4572L15.8 497.571ZM28.7964 497.571V491.571L36.3679 478.429H31.1107L26.4535 486.828L21.7393 478.429H16.5965L23.9964 491.629V497.571H28.7964ZM71.6837 497.571L73.3434 493.6H64.1609L70.9026 484.877C72.3296 483.03 73.104 480.763 73.104 478.429H57.7324V482.4H67.1041L59.3321 492.173C58.1114 493.707 57.4468 495.611 57.4468 497.571H71.6837ZM87.9935 490.029L85.5361 483.743L83.1076 490.029H87.9935ZM95.9364 497.571H90.9077L89.5648 494.086H81.5077L80.165 497.571H75.1078L82.2285 480.532C82.761 479.258 84.0069 478.428 85.388 478.428H87.9363L95.9364 497.571ZM103.978 482.543H110.178V478.429H93.0927V482.543H99.2926V497.571H103.978V482.543Z" fill="#F50537"/>
<path d="M127.882 497.667L120.839 478.448H122.981L129.172 495.835H128.759L134.924 478.448H137.091L130.049 497.667H127.882Z" fill="white"/>
<path d="M138.726 497.667V483.84H140.66V497.667H138.726ZM138.726 481.286V478.448H140.66V481.286H138.726Z" fill="white"/>
<path d="M150.218 497.977C148.929 497.977 147.768 497.667 146.736 497.048C145.704 496.411 144.887 495.552 144.285 494.468C143.7 493.367 143.408 492.129 143.408 490.753C143.408 489.36 143.7 488.122 144.285 487.039C144.887 485.955 145.695 485.104 146.71 484.485C147.742 483.848 148.911 483.53 150.218 483.53C151.405 483.53 152.463 483.788 153.391 484.304C154.32 484.82 155.051 485.517 155.584 486.394L155.275 486.935V478.139H157.209V497.667H155.275V494.571L155.584 494.855C155.103 495.853 154.38 496.626 153.417 497.177C152.471 497.71 151.405 497.977 150.218 497.977ZM150.322 496.042C151.25 496.042 152.084 495.81 152.824 495.345C153.581 494.881 154.174 494.253 154.604 493.462C155.051 492.654 155.275 491.751 155.275 490.753C155.275 489.756 155.051 488.862 154.604 488.07C154.174 487.262 153.581 486.626 152.824 486.162C152.084 485.697 151.25 485.465 150.322 485.465C149.41 485.465 148.585 485.697 147.845 486.162C147.106 486.626 146.521 487.254 146.091 488.045C145.678 488.836 145.472 489.739 145.472 490.753C145.472 491.751 145.678 492.654 146.091 493.462C146.521 494.253 147.097 494.881 147.819 495.345C148.559 495.81 149.393 496.042 150.322 496.042Z" fill="white"/>
<path d="M166.831 497.977C165.542 497.977 164.372 497.667 163.323 497.048C162.291 496.411 161.474 495.543 160.872 494.442C160.27 493.342 159.969 492.095 159.969 490.702C159.969 489.309 160.262 488.079 160.847 487.013C161.431 485.929 162.222 485.078 163.22 484.459C164.235 483.84 165.37 483.53 166.625 483.53C167.623 483.53 168.508 483.719 169.282 484.098C170.073 484.459 170.744 484.958 171.294 485.594C171.845 486.213 172.266 486.918 172.558 487.709C172.851 488.483 172.997 489.283 172.997 490.108C172.997 490.28 172.988 490.478 172.971 490.702C172.954 490.908 172.928 491.123 172.894 491.347H161.208V489.541H171.784L170.856 490.315C171.011 489.369 170.899 488.526 170.52 487.787C170.159 487.03 169.635 486.437 168.947 486.007C168.259 485.56 167.485 485.336 166.625 485.336C165.765 485.336 164.965 485.56 164.226 486.007C163.504 486.454 162.936 487.082 162.523 487.89C162.111 488.681 161.947 489.627 162.033 490.728C161.947 491.828 162.119 492.791 162.549 493.617C162.996 494.425 163.598 495.053 164.355 495.5C165.129 495.947 165.954 496.171 166.831 496.171C167.846 496.171 168.697 495.93 169.385 495.448C170.073 494.967 170.632 494.365 171.062 493.643L172.713 494.52C172.438 495.139 172.017 495.715 171.449 496.248C170.882 496.764 170.202 497.185 169.411 497.512C168.637 497.822 167.777 497.977 166.831 497.977Z" fill="white"/>
<path d="M182.238 497.977C180.931 497.977 179.745 497.667 178.678 497.048C177.612 496.411 176.761 495.552 176.124 494.468C175.505 493.367 175.196 492.121 175.196 490.728C175.196 489.352 175.505 488.122 176.124 487.039C176.743 485.955 177.578 485.104 178.627 484.485C179.693 483.848 180.897 483.53 182.238 483.53C183.58 483.53 184.775 483.84 185.824 484.459C186.89 485.078 187.724 485.929 188.326 487.013C188.945 488.096 189.255 489.335 189.255 490.728C189.255 492.138 188.937 493.393 188.3 494.494C187.664 495.577 186.813 496.429 185.747 497.048C184.698 497.667 183.528 497.977 182.238 497.977ZM182.238 496.042C183.167 496.042 184.001 495.81 184.741 495.345C185.497 494.881 186.091 494.245 186.52 493.436C186.968 492.628 187.191 491.725 187.191 490.728C187.191 489.73 186.968 488.836 186.52 488.045C186.091 487.254 185.497 486.626 184.741 486.162C184.001 485.697 183.167 485.465 182.238 485.465C181.31 485.465 180.467 485.697 179.71 486.162C178.971 486.626 178.377 487.254 177.93 488.045C177.483 488.836 177.259 489.73 177.259 490.728C177.259 491.725 177.483 492.628 177.93 493.436C178.377 494.245 178.971 494.881 179.71 495.345C180.467 495.81 181.31 496.042 182.238 496.042Z" fill="white"/>
<g filter="url(#filter2_d_1_46)">
<circle cx="741" cy="491" r="7" fill="#F50537"/>
</g>
<g filter="url(#filter3_d_1_46)">
<circle cx="214" cy="491" r="7" fill="#F50537"/>
</g>
<g filter="url(#filter4_d_1_46)">
<circle cx="726" cy="378" r="7" fill="#F50537"/>
</g>
<g filter="url(#filter5_d_1_46)">
<circle cx="227" cy="378" r="7" fill="#F50537"/>
</g>
<g filter="url(#filter6_d_1_46)">
<circle cx="652" cy="265" r="7" fill="#F50537"/>
</g>
<g filter="url(#filter7_d_1_46)">
<circle cx="303" cy="265" r="7" fill="#F50537"/>
</g>
<defs>
<filter id="filter0_f_1_46" x="91" y="0" width="772" height="772" filterUnits="userSpaceOnUse" color-interpolation-filters="sRGB">
<feFlood flood-opacity="0" result="BackgroundImageFix"/>
<feBlend mode="normal" in="SourceGraphic" in2="BackgroundImageFix" result="shape"/>
<feGaussianBlur stdDeviation="100" result="effect1_foregroundBlur_1_46"/>
</filter>
<filter id="filter1_f_1_46" x="334" y="290" width="286" height="286" filterUnits="userSpaceOnUse" color-interpolation-filters="sRGB">
<feFlood flood-opacity="0" result="BackgroundImageFix"/>
<feBlend mode="normal" in="SourceGraphic" in2="BackgroundImageFix" result="shape"/>
<feGaussianBlur stdDeviation="30" result="effect1_foregroundBlur_1_46"/>
</filter>
<filter id="filter2_d_1_46" x="724" y="478" width="34" height="34" filterUnits="userSpaceOnUse" color-interpolation-filters="sRGB">
<feFlood flood-opacity="0" result="BackgroundImageFix"/>
<feColorMatrix in="SourceAlpha" type="matrix" values="0 0 0 0 0 0 0 0 0 0 0 0 0 0 0 0 0 0 127 0" result="hardAlpha"/>
<feOffset dy="4"/>
<feGaussianBlur stdDeviation="5"/>
<feComposite in2="hardAlpha" operator="out"/>
<feColorMatrix type="matrix" values="0 0 0 0 0 0 0 0 0 0 0 0 0 0 0 0 0 0 1 0"/>
<feBlend mode="normal" in2="BackgroundImageFix" result="effect1_dropShadow_1_46"/>
<feBlend mode="normal" in="SourceGraphic" in2="effect1_dropShadow_1_46" result="shape"/>
</filter>
<filter id="filter3_d_1_46" x="197" y="478" width="34" height="34" filterUnits="userSpaceOnUse" color-interpolation-filters="sRGB">
<feFlood flood-opacity="0" result="BackgroundImageFix"/>
<feColorMatrix in="SourceAlpha" type="matrix" values="0 0 0 0 0 0 0 0 0 0 0 0 0 0 0 0 0 0 127 0" result="hardAlpha"/>
<feOffset dy="4"/>
<feGaussianBlur stdDeviation="5"/>
<feComposite in2="hardAlpha" operator="out"/>
<feColorMatrix type="matrix" values="0 0 0 0 0 0 0 0 0 0 0 0 0 0 0 0 0 0 1 0"/>
<feBlend mode="normal" in2="BackgroundImageFix" result="effect1_dropShadow_1_46"/>
<feBlend mode="normal" in="SourceGraphic" in2="effect1_dropShadow_1_46" result="shape"/>
</filter>
<filter id="filter4_d_1_46" x="709" y="365" width="34" height="34" filterUnits="userSpaceOnUse" color-interpolation-filters="sRGB">
<feFlood flood-opacity="0" result="BackgroundImageFix"/>
<feColorMatrix in="SourceAlpha" type="matrix" values="0 0 0 0 0 0 0 0 0 0 0 0 0 0 0 0 0 0 127 0" result="hardAlpha"/>
<feOffset dy="4"/>
<feGaussianBlur stdDeviation="5"/>
<feComposite in2="hardAlpha" operator="out"/>
<feColorMatrix type="matrix" values="0 0 0 0 0 0 0 0 0 0 0 0 0 0 0 0 0 0 1 0"/>
<feBlend mode="normal" in2="BackgroundImageFix" result="effect1_dropShadow_1_46"/>
<feBlend mode="normal" in="SourceGraphic" in2="effect1_dropShadow_1_46" result="shape"/>
</filter>
<filter id="filter5_d_1_46" x="210" y="365" width="34" height="34" filterUnits="userSpaceOnUse" color-interpolation-filters="sRGB">
<feFlood flood-opacity="0" result="BackgroundImageFix"/>
<feColorMatrix in="SourceAlpha" type="matrix" values="0 0 0 0 0 0 0 0 0 0 0 0 0 0 0 0 0 0 127 0" result="hardAlpha"/>
<feOffset dy="4"/>
<feGaussianBlur stdDeviation="5"/>
<feComposite in2="hardAlpha" operator="out"/>
<feColorMatrix type="matrix" values="0 0 0 0 0 0 0 0 0 0 0 0 0 0 0 0 0 0 1 0"/>
<feBlend mode="normal" in2="BackgroundImageFix" result="effect1_dropShadow_1_46"/>
<feBlend mode="normal" in="SourceGraphic" in2="effect1_dropShadow_1_46" result="shape"/>
</filter>
<filter id="filter6_d_1_46" x="635" y="252" width="34" height="34" filterUnits="userSpaceOnUse" color-interpolation-filters="sRGB">
<feFlood flood-opacity="0" result="BackgroundImageFix"/>
<feColorMatrix in="SourceAlpha" type="matrix" values="0 0 0 0 0 0 0 0 0 0 0 0 0 0 0 0 0 0 127 0" result="hardAlpha"/>
<feOffset dy="4"/>
<feGaussianBlur stdDeviation="5"/>
<feComposite in2="hardAlpha" operator="out"/>
<feColorMatrix type="matrix" values="0 0 0 0 0 0 0 0 0 0 0 0 0 0 0 0 0 0 1 0"/>
<feBlend mode="normal" in2="BackgroundImageFix" result="effect1_dropShadow_1_46"/>
<feBlend mode="normal" in="SourceGraphic" in2="effect1_dropShadow_1_46" result="shape"/>
</filter>
<filter id="filter7_d_1_46" x="286" y="252" width="34" height="34" filterUnits="userSpaceOnUse" color-interpolation-filters="sRGB">
<feFlood flood-opacity="0" result="BackgroundImageFix"/>
<feColorMatrix in="SourceAlpha" type="matrix" values="0 0 0 0 0 0 0 0 0 0 0 0 0 0 0 0 0 0 127 0" result="hardAlpha"/>
<feOffset dy="4"/>
<feGaussianBlur stdDeviation="5"/>
<feComposite in2="hardAlpha" operator="out"/>
<feColorMatrix type="matrix" values="0 0 0 0 0 0 0 0 0 0 0 0 0 0 0 0 0 0 1 0"/>
<feBlend mode="normal" in2="BackgroundImageFix" result="effect1_dropShadow_1_46"/>
<feBlend mode="normal" in="SourceGraphic" in2="effect1_dropShadow_1_46" result="shape"/>
</filter>
<linearGradient id="paint0_linear_1_46" x1="462.407" y1="333.843" x2="462.407" y2="365.307" gradientUnits="userSpaceOnUse">
<stop stop-opacity="0.01"/>
<stop offset="0.284064"/>
<stop offset="1" stop-opacity="0.01"/>
</linearGradient>
<linearGradient id="paint1_linear_1_46" x1="500.998" y1="439.848" x2="500.998" y2="387.821" gradientUnits="userSpaceOnUse">
<stop stop-opacity="0.01"/>
<stop offset="0.377049"/>
<stop offset="1" stop-opacity="0.01"/>
</linearGradient>
<linearGradient id="paint2_linear_1_46" x1="461.994" y1="333.843" x2="461.994" y2="365.307" gradientUnits="userSpaceOnUse">
<stop stop-opacity="0.01"/>
<stop offset="0.284064"/>
<stop offset="1" stop-opacity="0.01"/>
</linearGradient>
<linearGradient id="paint3_linear_1_46" x1="500.411" y1="439.848" x2="500.411" y2="387.821" gradientUnits="userSpaceOnUse">
<stop stop-opacity="0.01"/>
<stop offset="0.377049"/>
<stop offset="1" stop-opacity="0.01"/>
</linearGradient>
</defs>
</svg>
